#!OML:ASF E:\emotionWalksFemale\Project 1\Capture day 1\Session 1\Female1.ASF
:FULLY-SPECIFIED
:DEGREES
1
root 8.87431 15.4764 22.5808 178.853 2.4836 -178.923
lowerback 8.09505 1.10357 1.29283
upperback -4.55958 1.70767 -0.168215
thorax -9.35466 0.774429 -1.18489
lowerneck -9.05524 -1.18565 -5.01989
upperneck 12.2469 -1.7808 5.25191
head 5.25874 -0.828456 2.32892
rclavicle -5.96354e-016 -6.75868e-015
rhumerus -38.5476 -0.0111179 -88.376
rradius 37.922
rwrist 21.673
rhand 1.09063 -50.6888
rfingers 7.12502
rthumb 26.6346 -78.8353
lclavicle -5.96354e-016 -6.75868e-015
lhumerus -40.5013 -0.96767 88.2194
lradius 40.9364
lwrist -4.67936
lhand -5.12038 -38.3709
lfingers 7.12502
lthumb 20.6777 -9.4524
rfemur 1.78077 17.8316 25.9233
rtibia 14.9759
rfoot -20.5355 -27.9413
rtoes -3.89397
lfemur -5.32504 -20.2395 -23.7054
ltibia 24.2661
lfoot -21.0409 21.3308
ltoes -31.483
2
root 8.8763 15.4803 22.5699 178.949 3.062 -178.975
lowerback 7.98672 1.19939 1.21123
upperback -4.57396 1.82809 -0.153598
thorax -9.30589 0.839852 -1.13991
lowerneck -8.9554 -1.08802 -4.90696
upperneck 12.0278 -1.63405 5.11867
head 5.16436 -0.758174 2.27845
rclavicle 1.3741e-014 -1.98785e-015
rhumerus -38.6496 -0.0617278 -88.4948
rradius 37.8786
rwrist 21.5107
rhand 1.43085 -50.8626
rfingers 7.12502
rthumb 26.9601 -78.9592
lclavicle 1.3741e-014 -1.98785e-015
lhumerus -40.5038 -0.663382 88.0612
lradius 40.5431
lwrist -4.91364
lhand -5.06928 -37.9193
lfingers 7.12502
lthumb 20.7268 -9.00618
rfemur 1.6478 18.0696 25.8106
rtibia 14.9663
rfoot -20.341 -27.5656
rtoes -4.46885
lfemur -5.26573 -19.9395 -23.7607
ltibia 24.2262
lfoot -20.9447 21.6959
ltoes -32.3527
3
root 8.87981 15.4858 22.56 179.195 3.66443 -179.054
lowerback 7.77524 1.30818 0.982926
upperback -4.64225 1.95726 -0.0836489
thorax -9.26211 0.922563 -0.953147
lowerneck -8.92808 -0.970141 -4.95929
upperneck 11.8585 -1.45485 5.1269
head 5.09841 -0.669371 2.30183
rclavicle 2.49723e-015 -1.39149e-015
rhumerus -39.0989 0.1365 -88.5436
rradius 38.3406
rwrist 21.3679
rhand 2.24424 -50.9194
rfingers 7.12502
rthumb 27.7382 -78.8932
lclavicle 2.49723e-015 -1.39149e-015
lhumerus -40.4919 -0.205819 87.9134
lradius 40.1182
lwrist -5.24613
lhand -4.75758 -37.7859
lfingers 7.12502
lthumb 21.0263 -8.90571
rfemur 1.25171 18.3423 25.6147
rtibia 15.1189
rfoot -20.1066 -27.2343
rtoes -5.53149
lfemur -5.36304 -19.6078 -23.7697
ltibia 24.1196
lfoot -20.9986 21.9786
ltoes -32.4085
4
root 8.88291 15.4884 22.553 179.412 4.28429 -179.092
lowerback 7.63506 1.41858 0.770842
upperback -4.72343 2.09449 0.00954905
thorax -9.27633 1.00853 -0.754218
lowerneck -8.91586 -0.843006 -5.07395
upperneck 11.7292 -1.26969 5.22699
head 5.04773 -0.57517 2.3646
rclavicle -9.29318e-015 3.97569e-016
rhumerus -39.036 0.270832 -88.4881
rradius 37.8287
rwrist 21.5732
rhand 2.56084 -50.1268
rfingers 7.12502
rthumb 28.0408 -78.0514
lclavicle -9.29318e-015 3.97569e-016
lhumerus -40.6201 0.118516 87.8204
lradius 39.8334
lwrist -5.46214
lhand -4.59795 -38.1745
lfingers 7.12502
lthumb 21.1797 -9.31143
rfemur 0.882385 18.5599 25.4613
rtibia 15.257
rfoot -19.9283 -26.9127
rtoes -6.69235
lfemur -5.4808 -19.3662 -23.7517
ltibia 24.0365
lfoot -21.0308 22.28
ltoes -32.2116
5
root 8.88135 15.4865 22.5469 179.409 4.33623 -179.098
lowerback 7.69614 1.31625 0.81868
upperback -4.73397 1.96292 0.00839217
thorax -9.32439 0.940931 -0.763993
lowerneck -8.7944 -0.91904 -4.91794
upperneck 11.5051 -1.06374 5.16978
head 4.94931 -0.336307 2.34557
rclavicle -1.18153e-014 -2.5842e-015
rhumerus -39.1949 0.343899 -88.5535
rradius 37.7871
rwrist 21.6906
rhand 2.78138 -49.8576
rfingers 7.12502
rthumb 28.2516 -77.7476
lclavicle -1.18153e-014 -2.5842e-015
lhumerus -40.8703 0.386142 87.5821
lradius 39.7554
lwrist -5.63881
lhand -4.2596 -38.017
lfingers 7.12502
lthumb 21.5047 -9.19078
rfemur 0.817393 18.4932 25.4526
rtibia 15.4389
rfoot -19.9932 -26.8353
rtoes -6.49103
lfemur -5.41377 -19.3579 -23.7666
ltibia 23.9523
lfoot -21.1179 22.1851
ltoes -31.6299
6
root 8.88136 15.4834 22.5414 179.38 4.67996 -179.152
lowerback 7.75523 1.32347 0.825253
upperback -4.71501 1.96644 -0.0486619
thorax -9.33619 0.938906 -0.830076
lowerneck -8.6147 -0.806275 -4.70514
upperneck 11.1485 -0.943953 5.15133
head 4.80167 -0.276572 2.30974
rclavicle -1.48219e-014 -2.48481e-015
rhumerus -39.4402 0.431831 -88.7103
rradius 37.9692
rwrist 21.6848
rhand 3.05675 -50.167
rfingers 7.12502
rthumb 28.5148 -78.0132
lclavicle -1.48219e-014 -2.48481e-015
lhumerus -41.0721 0.702349 87.2161
lradius 39.6433
lwrist -5.99893
lhand -3.7853 -37.5333
lfingers 7.12502
lthumb 21.9601 -8.75975
rfemur 0.743914 18.5552 25.3756
rtibia 15.6076
rfoot -19.8228 -26.5914
rtoes -5.57013
lfemur -5.27518 -19.2384 -23.8565
ltibia 23.8896
lfoot -21.6196 22.1013
ltoes -29.8354
7
root 8.88061 15.4832 22.534 179.405 5.01189 -179.215
lowerback 7.81089 1.35131 0.857985
upperback -4.73007 2.00183 -0.12297
thorax -9.3812 0.950534 -0.934917
lowerneck -8.59805 -0.727897 -4.57643
upperneck 10.9376 -0.860041 5.17923
head 4.72922 -0.232009 2.301
rclavicle -8.3738e-015 -2.18663e-015
rhumerus -39.6577 0.417993 -88.7482
rradius 38.0575
rwrist 21.895
rhand 3.28339 -50.5091
rfingers 7.12502
rthumb 28.7313 -78.3187
lclavicle -8.3738e-015 -2.18663e-015
lhumerus -41.2113 1.00773 86.8688
lradius 39.3257
lwrist -6.48866
lhand -3.57579 -37.6154
lfingers 7.12502
lthumb 22.1613 -8.86561
rfemur 0.621065 18.6457 25.2705
rtibia 15.7516
rfoot -19.2997 -26.3613
rtoes -4.68302
lfemur -5.198 -19.1751 -23.9442
ltibia 23.8339
lfoot -21.8357 22.1655
ltoes -29.0534
8
root 8.88179 15.4843 22.5269 179.432 5.23008 -179.238
lowerback 7.92752 1.31918 0.876422
upperback -4.75033 1.96022 -0.141112
thorax -9.47207 0.927152 -0.962
lowerneck -8.71197 -0.624406 -4.43616
upperneck 10.829 -0.731792 5.11943
head 4.7078 -0.169073 2.26684
rclavicle -9.06955e-015 -7.35503e-015
rhumerus -39.7834 0.40158 -88.6453
rradius 38.0576
rwrist 22.0438
rhand 3.73551 -50.6448
rfingers 7.12502
rthumb 29.1632 -78.3804
lclavicle -9.06955e-015 -7.35503e-015
lhumerus -41.3951 1.40024 86.5307
lradius 39.0393
lwrist -6.93912
lhand -3.43374 -37.9925
lfingers 7.12502
lthumb 22.2976 -9.25904
rfemur 0.49078 18.7346 25.2356
rtibia 15.8934
rfoot -18.6318 -26.2213
rtoes -3.93721
lfemur -5.13229 -19.0962 -23.9667
ltibia 23.7655
lfoot -21.833 22.1934
ltoes -29.0179
9
root 8.88426 15.4855 22.5205 179.507 5.63451 -179.283
lowerback 7.9767 1.32706 0.743686
upperback -4.76094 1.96088 -0.0754817
thorax -9.51955 0.937884 -0.81955
lowerneck -8.75748 -0.478674 -4.36155
upperneck 10.6014 -0.538607 5.04321
head 4.63555 -0.0808446 2.24145
rclavicle 1.50455e-014 2.68359e-015
rhumerus -39.7995 0.503015 -88.4212
rradius 37.9072
rwrist 22.0092
rhand 4.1629 -50.0727
rfingers 7.12502
rthumb 29.5712 -77.7368
lclavicle 1.50455e-014 2.68359e-015
lhumerus -41.6788 1.77409 86.286
lradius 38.9266
lwrist -7.12565
lhand -3.29632 -38.0927
lfingers 7.12502
lthumb 22.4296 -9.375
rfemur 0.273429 18.9087 25.1387
rtibia 16.0089
rfoot -17.9834 -25.9508
rtoes -3.11026
lfemur -5.11081 -18.9599 -23.9961
ltibia 23.6942
lfoot -22.029 22.2971
ltoes -28.3118
10
root 8.88519 15.4867 22.5084 179.606 6.28457 -179.273
lowerback 8.06855 1.43326 0.652528
upperback -4.86642 2.10746 0.0123328
thorax -9.69449 1.0184 -0.703915
lowerneck -8.65086 -0.368255 -4.2959
upperneck 10.356 -0.389341 4.92365
head 4.53487 -0.0177207 2.20063
rclavicle -1.9717e-014 -2.88238e-015
rhumerus -40.0168 0.622716 -88.1893
rradius 37.815
rwrist 21.9917
rhand 4.31472 -49.8976
rfingers 7.12502
rthumb 29.7161 -77.5359
lclavicle -1.9717e-014 -2.88238e-015
lhumerus -42.156 2.10492 86.0553
lradius 38.8585
lwrist -7.25109
lhand -3.12795 -37.9189
lfingers 7.12502
lthumb 22.5912 -9.22077
rfemur 0.0446713 19.1755 25.0662
rtibia 16.1131
rfoot -17.368 -25.5026
rtoes -2.30049
lfemur -5.05236 -18.8405 -24.0009
ltibia 23.6148
lfoot -22.322 22.5335
ltoes -27.1994
11
root 8.88335 15.4855 22.4891 179.597 6.92329 -179.236
lowerback 6.64359 1.56127 0.973597
upperback -4.03144 2.25105 -0.0970199
thorax -7.92801 1.07336 -0.953159
lowerneck -8.8594 -0.291613 -4.14809
upperneck 9.3907 -0.306765 4.94412
head 4.27017 0.0150031 2.18029
rclavicle 8.0632e-015 1.98785e-016
rhumerus -38.8331 0.412003 -88.1156
rradius 37.6145
rwrist 22.0788
rhand 4.40001 -50.1364
rfingers 7.12502
rthumb 29.7975 -77.7602
lclavicle 8.0632e-015 1.98785e-016
lhumerus -41.1125 2.47798 85.6537
lradius 38.5385
lwrist -7.53418
lhand -2.92015 -37.7549
lfingers 7.12502
lthumb 22.7906 -9.08125
rfemur -0.0168918 19.4097 25.0696
rtibia 16.2253
rfoot -16.6216 -25.1378
rtoes -2.22387
lfemur -4.80634 -18.883 -24.0654
ltibia 23.5116
lfoot -22.7573 22.8078
ltoes -25.5408
12
root 8.88615 15.4888 22.4914 179.658 6.83189 -179.276
lowerback 7.22194 1.41631 1.04365
upperback -4.31334 2.07581 -0.180092
thorax -8.56925 0.976075 -1.08182
lowerneck -8.76049 -0.174543 -4.0987
upperneck 9.40243 -0.168361 5.07126
head 4.25069 0.0929394 2.21992
rclavicle -2.69602e-015 4.27387e-015
rhumerus -39.285 0.21769 -87.9764
rradius 37.5531
rwrist 22.1902
rhand 4.48011 -49.8729
rfingers 7.12502
rthumb 29.874 -77.483
lclavicle -2.69602e-015 4.27387e-015
lhumerus -41.7093 2.68746 85.2514
lradius 38.4354
lwrist -7.77853
lhand -2.92324 -37.7502
lfingers 7.12502
lthumb 22.7876 -9.07614
rfemur -0.141901 19.4351 25.0469
rtibia 16.3236
rfoot -15.9561 -25.2423
rtoes -1.72444
lfemur -4.80866 -18.9101 -24.0349
ltibia 23.3919
lfoot -22.8724 22.4754
ltoes -24.4596
13
root 8.88882 15.4942 22.4874 179.699 6.8024 -179.293
lowerback 7.18287 1.28962 1.06914
upperback -4.26961 1.9064 -0.16981
thorax -8.50236 0.892453 -1.05877
lowerneck -8.65725 -0.0145157 -4.15168
upperneck 9.15672 0.0428394 5.17728
head 4.14827 0.197107 2.27161
rclavicle -1.73315e-014 -2.98177e-016
rhumerus -39.2743 0.201832 -87.7359
rradius 37.4371
rwrist 22.2966
rhand 4.55463 -49.8285
rfingers 7.12502
rthumb 29.9451 -77.4257
lclavicle -1.73315e-014 -2.98177e-016
lhumerus -41.8999 3.09243 84.9337
lradius 38.2904
lwrist -8.06472
lhand -2.89164 -37.6798
lfingers 7.12502
lthumb 22.818 -9.00951
rfemur -0.264499 19.6074 25.0651
rtibia 16.4592
rfoot -15.5208 -25.341
rtoes -0.857636
lfemur -4.72964 -18.9458 -24.0127
ltibia 23.2401
lfoot -22.9656 22.2433
ltoes -23.524
14
root 8.89406 15.5003 22.481 179.737 6.84518 -179.255
lowerback 7.0869 1.20324 1.10467
upperback -4.20898 1.79245 -0.14138
thorax -8.38295 0.836446 -1.02846
lowerneck -8.57477 0.101188 -4.10446
upperneck 8.91656 0.1913 5.19204
head 4.05423 0.268905 2.27466
rclavicle 2.91965e-015 -5.26779e-015
rhumerus -39.3414 0.150317 -87.4655
rradius 37.4564
rwrist 22.3682
rhand 4.62515 -50.1379
rfingers 7.12502
rthumb 30.0124 -77.723
lclavicle 2.91965e-015 -5.26779e-015
lhumerus -42.0477 3.55784 84.5862
lradius 38.1124
lwrist -8.3322
lhand -2.49068 -37.4138
lfingers 7.12502
lthumb 23.2027 -8.7914
rfemur -0.39322 19.8347 25.1569
rtibia 16.6365
rfoot -15.3737 -25.4471
rtoes -0.123292
lfemur -4.65574 -18.9885 -23.9389
ltibia 23.0495
lfoot -22.7943 22.2651
ltoes -23.5417
